<svg xmlns="http://www.w3.org/2000/svg" viewBox="0 0 11.36 11.79"><g id="Слой_2" data-name="Слой 2"><g id="Слой_1-2" data-name="Слой 1"><path d="M5.88,0l.21.06a1.48,1.48,0,0,1,1.1,1.56,1.44,1.44,0,0,1-.83,1.21c-.09,0-.19.1-.19.2s0,.84,0,1-.06,0,0,0h1s.15,0,.19,0a.53.53,0,0,1,.71.77.52.52,0,0,1-.67.1c-.09-.06-.17.06-.27.06H6.26c-.07,0-.09-.12-.09,0,0,1.61,0,3.15,0,4.76,0,0,0,.05,0,.09a8.12,8.12,0,0,0,1.34-.06,4.25,4.25,0,0,0,1.19-.36,2.88,2.88,0,0,0,1.19-1l0-.05-.41-.12L10.9,6.8l.45,1.85-.22-.06c-.24-.08-.24-.08-.37.14a5.24,5.24,0,0,1-1.65,1.71,6.57,6.57,0,0,1-2.31.75l-.22,0c-.08,0-.63,0-.66.11s-.15.3-.23.47l-.16-.31a.73.73,0,0,1-.06-.12c0-.12-.62-.15-.73-.16a6.06,6.06,0,0,1-1.54-.26,5,5,0,0,1-1-.56,5.26,5.26,0,0,1-1.09-1A5,5,0,0,1,.51,8.4s-.05,0-.09,0L0,8.45.57,6.64,1.86,8l-.42.1c.11.16.2.31.31.45a3.26,3.26,0,0,0,1.9,1.1,11.7,11.7,0,0,0,1.56.07V5H4.13c-.07,0-.13-.13-.19-.08a.52.52,0,1,1,0-.86C4,4,4,4,4.06,4H5s.14.07.19.07c0-.18,0-.94,0-1.11,0,0,0,0,0-.06a1.44,1.44,0,0,1-.51-.3,1.42,1.42,0,0,1-.48-.95A1.45,1.45,0,0,1,4.9.23,1.44,1.44,0,0,1,5.43,0l.08,0ZM5.7,2.26a.78.78,0,0,0,.77-.76.77.77,0,0,0-1.54,0A.78.78,0,0,0,5.7,2.26Z" id="lDnzZD"/></g></g></svg>