<svg xmlns="http://www.w3.org/2000/svg" viewBox="0 0 11.36 11.79"><title/><g data-name="Слой 2"><path d="M5.88 0l.21.06a1.48 1.48 0 0 1 1.1 1.56 1.44 1.44 0 0 1-.83 1.21c-.09 0-.19.1-.19.2v1c0 .16-.06 0 0 0h1.19a.53.53 0 0 1 .71.77.52.52 0 0 1-.67.1c-.09-.06-.17.06-.27.06h-.87c-.07 0-.09-.12-.09 0v4.85a8.12 8.12 0 0 0 1.34-.06 4.25 4.25 0 0 0 1.19-.36 2.88 2.88 0 0 0 1.19-1v-.05l-.41-.12L10.9 6.8l.45 1.85-.22-.06c-.24-.08-.24-.08-.37.14a5.24 5.24 0 0 1-1.65 1.71 6.57 6.57 0 0 1-2.31.75h-.22c-.08 0-.63 0-.66.11s-.15.3-.23.47l-.16-.31a.73.73 0 0 1-.06-.12c0-.12-.62-.15-.73-.16a6.06 6.06 0 0 1-1.54-.26 5 5 0 0 1-1-.56 5.26 5.26 0 0 1-1.09-1 5 5 0 0 1-.6-.96H.42L0 8.45l.57-1.81L1.86 8l-.42.1c.11.16.2.31.31.45a3.26 3.26 0 0 0 1.9 1.1 11.7 11.7 0 0 0 1.56.07V5H4.13c-.07 0-.13-.13-.19-.08a.52.52 0 1 1 0-.86C4 4 4 4 4.06 4H5s.14.07.19.07V2.9a1.44 1.44 0 0 1-.51-.3 1.42 1.42 0 0 1-.48-.95A1.45 1.45 0 0 1 4.9.23 1.44 1.44 0 0 1 5.43 0h.08zM5.7 2.26a.78.78 0 0 0 .77-.76.77.77 0 0 0-1.54 0 .78.78 0 0 0 .77.76z" data-name="Слой 1"/></g></svg>