<svg xmlns="http://www.w3.org/2000/svg" viewBox="0 0 34.73 49.81"><defs><style/></defs><title>бутылки</title><g id="Слой_2" data-name="Слой 2"><path class="cls-1" d="M13.11 31.91a5.22 5.22 0 0 0 2.68-4.68c0-2.41-2-12.22-2-12.22H2.05S0 24.91 0 27.59s3.48 4.81 3.48 4.81 2.41 1 2.85 2.23A24.12 24.12 0 0 1 7 40.25c0 1.25-.18 4.28-1.69 5s-4.06 1.52-4.1 2.23c0 .56 1.15 1.34 2.32 1.34h8.74c1.07 0 2.32-.89 2.32-1.52s-2.3-1.08-3.75-1.79c-2-.95-1.86-3.79-1.86-5.43 0-.84.11-4.57.8-5.71s1.99-1.7 3.33-2.46zM7 30.5a2.81 2.81 0 0 1-2.37 0 4.82 4.82 0 0 1-2.31-3.62 29.92 29.92 0 0 1 1.77-9.94h7.59l1.22 4.81H5.84s-.38.88-.44 4.31c-.03 3.79.76 4.16 1.6 4.44zm22-1.92c1.23 0 4.27-.22 5.75-.33v-7.73c0-1.55-4.5-5.5-4.5-6.33V.53c-1-.76-5-.66-6 .06v13.76c0 .58-4.4 4.63-4.42 6v27A3.62 3.62 0 0 0 22 49.06a13.81 13.81 0 0 0 4.93.75c2.67 0 4.58-.09 5.83-.75a6.19 6.19 0 0 0 2-1.77v-3.71c-1.48.11-4.52.32-5.75.32-1.65 0-6.58-.38-6.58-.38V28.18s4.89.4 6.57.4zm-7-5.73l-.69-.21-.25-1.12.17-1 .54-1.19.88-1.15L24 17l1.42-2 .29.4v1l-.6 1.44-.94 2-.46 1.33-.92 1.52z" id="Слой_1-2" data-name="Слой 1"/></g></svg>