<svg xmlns="http://www.w3.org/2000/svg" width="61" height="48" viewBox="0 0 61 48"><path fill="#fff" d="M30.287 43.926c-9.133 0-16.563-7.44-16.563-16.584 0-9.145 7.43-16.584 16.563-16.584 9.134 0 16.564 7.44 16.564 16.584 0 9.145-7.43 16.584-16.564 16.584zM10.411 18.813c-.804 0-1.42-.616-1.42-1.421 0-.806.616-1.421 1.42-1.421.805 0 1.42.616 1.42 1.421s-.615 1.421-1.42 1.421zm-3.79-2.379a2.845 2.845 0 0 1-2.835-2.838 2.845 2.845 0 0 1 2.834-2.838 2.845 2.845 0 0 1 2.835 2.838 2.845 2.845 0 0 1-2.835 2.838zM22.714 4.362c0-.285.19-.474.474-.474h14.197c.284 0 .473.19.473.474v1.895c0 .284-.19.474-.473.474H23.189c-.284 0-.474-.19-.474-.474zm33.98 2.606c.046-.142.094-.19.094-.38 0-.805-.615-1.326-1.42-1.326h-3.313c-.804 0-1.42.616-1.42 1.422 0 .19.048 0 .095.473h-6.767l-2.082-4.264C41.125 1.329 39.09.05 37.386.05H23.189c-1.751 0-3.739 1.28-4.496 2.843l-2.082 4.264h-1.94V5.025c0-.284-.19-.237-.474-.237H4.732c-.284 0-.473-.047-.473.237V6.92A4.244 4.244 0 0 0 0 11.185v32.22c0 2.369 1.893 4.5 4.26 4.5h52.055c2.367 0 4.26-2.131 4.26-4.5v-32.22c0-2.18-1.704-4.028-3.88-4.217z" opacity=".55"/><path fill="#fff" d="M30.29 34.442a7.092 7.092 0 0 1-7.098-7.105 7.092 7.092 0 0 1 7.099-7.105 7.092 7.092 0 0 1 7.098 7.105 7.092 7.092 0 0 1-7.098 7.105zm0-20.372c-7.287 0-13.25 5.97-13.25 13.267s5.963 13.267 13.25 13.267c7.289 0 13.251-5.97 13.251-13.267S37.58 14.07 30.291 14.07z" opacity=".55"/></svg>