<svg width="18" height="17" viewBox="0 0 18 17" xmlns="http://www.w3.org/2000/svg"><g id="All" stroke="none" stroke-width="1" fill="none" fill-rule="evenodd"><g id="Boucle-Review" transform="translate(-808 -1410)" fill="#828282"><g id="Page-1" transform="translate(808 1410)"><path d="M10.0329675,1.4651789 C10.116113,1.93109214 10.2401541,2.17784854 10.1651336,2.29015959 C9.95063457,2.61206329 9.66490673,2.88887861 9.39082466,3.16706024 C6.91569026,5.67697998 4.44136836,8.18826602 1.95567152,10.6875285 C1.35252847,11.2938989 0.909447183,11.958201 0.854739103,12.8446658 C0.777281127,14.092111 1.22550822,15.0906136 2.29583661,15.7191183 C3.40381066,16.3700305 4.53615959,16.3069068 5.60080051,15.5721028 C5.88382003,15.3769931 6.12675641,15.1182132 6.37104695,14.8714568 C9.61561529,11.592302 12.8582878,8.31041454 16.098252,5.02661427 C16.3420009,4.77958461 16.5976664,4.533648 16.7910405,4.24836153 C17.3874127,3.36790847 17.2761007,2.21145988 16.5546041,1.48102815 C15.8098158,0.726822544 14.7143001,0.610139286 13.8210959,1.22115513 C13.5375347,1.41517179 13.2943275,1.67422502 13.0503078,1.92070815 C10.508007,4.48719331 7.9686854,7.05586457 5.43153046,9.62726846 C5.18751075,9.87429812 4.91911616,10.1139497 4.74145031,10.4066142 C4.41780597,10.9386571 4.43838921,11.4933808 4.85330396,11.9838877 C5.24844797,12.4511673 5.95938218,12.5533676 6.50944214,12.1951199 C6.79598248,12.0082081 7.03621054,11.7431431 7.28050108,11.49666 C9.02709717,9.73548056 10.767735,7.96774286 12.5151436,6.20711 C12.816038,5.90378818 13.1394115,5.62342045 13.4197227,5.36327417 C13.8758039,5.54144158 13.9987617,5.76360431 13.7379504,6.09534547 C13.6041594,6.26586152 13.4473476,6.41916201 13.2948691,6.57355555 C11.3993154,8.49404721 9.51080327,10.4213704 7.59845794,12.3249198 C7.26858447,12.6533818 6.87100297,12.9684539 6.44525494,13.1310454 C5.59348804,13.4573213 4.66263817,13.1201148 4.12530732,12.4068987 C3.57633069,11.6783798 3.56441408,10.6050031 4.12043235,9.83768089 C4.29782736,9.59283733 4.52397215,9.38215163 4.73765866,9.16572742 C7.33629249,6.53283938 9.93655131,3.90159091 12.5376226,1.27116224 C12.75158,1.05501129 12.959579,0.827383292 13.1981821,0.641291257 C14.3600517,-0.264575256 15.9441485,-0.202817841 17.0166436,0.776283129 C18.1197427,1.78380344 18.3239501,3.4575387 17.4808498,4.70689668 C17.3115797,4.9572055 17.0959974,5.1796415 16.8828525,5.39579245 C13.4898682,8.83453278 10.0933631,12.2697207 6.6982121,15.7062749 C5.64413364,16.7736398 4.41022267,17.2482975 2.91983373,16.872561 C0.31713742,16.2159102 -0.839044737,13.1717615 0.674635768,10.9351047 C0.892655594,10.613201 1.16565433,10.3243621 1.43946557,10.0461805 C3.94384983,7.50401572 6.4525674,4.96594991 8.9648058,2.43088999 C9.23509621,2.15817361 9.53409483,1.91442311 10.0329675,1.4651789" id="Fill-1"/></g></g></g></svg>