<svg width="18" height="17" viewBox="0 0 18 17" xmlns="http://www.w3.org/2000/svg"><title>Page 1</title><path d="M10.033 1.465c.083.466.207.713.132.825-.214.322-.5.599-.774.877-2.475 2.51-4.95 5.021-7.435 7.52-.603.607-1.047 1.271-1.101 2.158-.078 1.247.37 2.246 1.44 2.874 1.109.651 2.241.588 3.306-.147.283-.195.526-.454.77-.7a9762.21 9762.21 0 0 0 9.727-9.845c.244-.247.5-.493.693-.779a2.188 2.188 0 0 0-.236-2.767c-.745-.754-1.84-.87-2.734-.26-.283.194-.527.453-.77.7a5499.879 5499.879 0 0 0-7.62 7.706c-.243.247-.512.487-.69.78-.323.532-.303 1.086.112 1.577.395.467 1.106.57 1.656.211.287-.187.527-.452.772-.698 1.746-1.762 3.487-3.53 5.234-5.29.301-.303.624-.584.905-.844.456.178.579.4.318.732-.134.17-.29.324-.443.479-1.896 1.92-3.784 3.847-5.697 5.75-.33.33-.727.644-1.153.807-.852.326-1.782-.01-2.32-.724-.549-.729-.56-1.802-.005-2.57.178-.244.404-.455.618-.671 2.598-2.633 5.199-5.264 7.8-7.895.214-.216.422-.444.66-.63 1.162-.906 2.746-.844 3.819.135a3.03 3.03 0 0 1 .464 3.93c-.17.251-.385.474-.598.69-3.393 3.439-6.79 6.874-10.185 10.31-1.054 1.068-2.288 1.542-3.778 1.167-2.603-.657-3.76-3.701-2.245-5.938.218-.322.49-.61.764-.889a3611.13 3611.13 0 0 1 7.526-7.615c.27-.273.57-.517 1.068-.966" fill="#828282" fill-rule="evenodd"/></svg>