<svg xmlns="http://www.w3.org/2000/svg" viewBox="0 0 49.38 52.17"><defs><style>.cls-1{fill:#fff}</style></defs><g id="Слой_2" data-name="Слой 2"><g id="Слой_1-2" data-name="Слой 1"><g id="l20jXf"><path class="cls-1" d="M48.09,7.19a53.65,53.65,0,0,1-3.32,7.3c-.21.4-.6.8-.62,1.24-.18,4,0,8-.25,12a11.69,11.69,0,0,1-3,7.19c-2.08,2.39-4.89,3.7-7.49,5.33-5.89,3.68-11.82,7.3-17.73,10.94-.37.23-.8.36-1.15.61-1.11.79-1.76.12-2.36-.7s-.05-1.45.52-2c1.47-1.42,2.85-2.94,4.44-4.2a5.93,5.93,0,0,0,2.34-4.57A4.17,4.17,0,0,1,22,36.59c2.9-1.53,5.69-3.28,8.54-4.91,2.07-1.18,4.18-2.29,6.23-3.48a2.36,2.36,0,0,0,1-1.1c1.43-3.83,2.79-7.69,4.19-11.53a2,2,0,0,0-.26-1.73,30.47,30.47,0,0,1-2.33-6.15,26.91,26.91,0,0,1-.43-5.83c0-1.47.71-2,2.19-1.83,2.24.26,4.48.56,6.73.83,1.29.15,1.71.9,1.48,2.1a39,39,0,0,1-1.22,4.24Z"/><path class="cls-1" d="M15.59,39.29A7.93,7.93,0,0,1,5.7,44.53a8,8,0,0,1-5.34-10,7.88,7.88,0,0,1,9.91-5.09A7.78,7.78,0,0,1,15.59,39.29Z"/><path class="cls-1" d="M26.31,31.95c-1.88,1.07-3.3,1.51-5.44.42-.23-.13-.3-.29-.51-.4a20.14,20.14,0,0,0-1.46,1.54s-1.29-2.4-1.77-3.35l2-.52c.29-1.89,1.06-3.81,3.51-4.5Z"/><path class="cls-1" d="M32.2,28.72c-1.5.93-3.3,1.8-4.71,2.68A.66.66,0,0,0,27.2,31l-3.29-6.69,4.53-2.28C29.49,23.91,30.8,26.26,32.2,28.72Z"/><path class="cls-1" d="M33.18,28.18c-1.08-2.12-2.45-4.62-3.56-6.81,5.3-2.84,4.7-1.46,7.05,2.26C37.71,25.29,36.44,26.66,33.18,28.18Z"/><path class="cls-1" d="M8.61,17.91a2.68,2.68,0,0,1-1.84-3.27A2.73,2.73,0,0,1,10,12.83,2.84,2.84,0,0,1,11.87,16,2.79,2.79,0,0,1,8.61,17.91Z"/><path class="cls-1" d="M9.55,23.5c-.6.25-.39.31-1,.28-.85,0-1.2-.71-1-1.6s.77-1.48,1.65-1.1A1.38,1.38,0,0,1,10,22.35,1.76,1.76,0,0,1,9.55,23.5Z"/><path class="cls-1" d="M14.35,20.08a1.11,1.11,0,0,1-1.27.66,1.16,1.16,0,0,1-.72-1.21,1,1,0,0,1,1.27-.68A1,1,0,0,1,14.35,20.08Z"/></g></g></g></svg>