<svg xmlns="http://www.w3.org/2000/svg" viewBox="0 0 49.38 52.17"><defs><style>.cls-1{fill:#fff}</style></defs><title>дайвинг_1</title><g id="Слой_2" data-name="Слой 2"><g id="Слой_1-2" data-name="Слой 1"><g id="l20jXf"><path class="cls-1" d="M48.09 7.19a53.65 53.65 0 0 1-3.32 7.3c-.21.4-.6.8-.62 1.24-.18 4 0 8-.25 12a11.69 11.69 0 0 1-3 7.19c-2.08 2.39-4.89 3.7-7.49 5.33-5.89 3.68-11.82 7.3-17.73 10.94-.37.23-.8.36-1.15.61-1.11.79-1.76.12-2.36-.7s-.05-1.45.52-2c1.47-1.42 2.85-2.94 4.44-4.2a5.93 5.93 0 0 0 2.34-4.57A4.17 4.17 0 0 1 22 36.59c2.9-1.53 5.69-3.28 8.54-4.91 2.07-1.18 4.18-2.29 6.23-3.48a2.36 2.36 0 0 0 1-1.1c1.43-3.83 2.79-7.69 4.19-11.53a2 2 0 0 0-.26-1.73 30.47 30.47 0 0 1-2.33-6.15 26.91 26.91 0 0 1-.43-5.83c0-1.47.71-2 2.19-1.83 2.24.26 4.48.56 6.73.83 1.29.15 1.71.9 1.48 2.1a39 39 0 0 1-1.22 4.24zm-32.5 32.1a7.93 7.93 0 0 1-9.89 5.24 8 8 0 0 1-5.34-10 7.88 7.88 0 0 1 9.91-5.09 7.78 7.78 0 0 1 5.32 9.85z"/><path class="cls-1" d="M26.31 31.95c-1.88 1.07-3.3 1.51-5.44.42-.23-.13-.3-.29-.51-.4a20.14 20.14 0 0 0-1.46 1.54s-1.29-2.4-1.77-3.35l2-.52c.29-1.89 1.06-3.81 3.51-4.5zm5.89-3.23c-1.5.93-3.3 1.8-4.71 2.68a.66.66 0 0 0-.29-.4l-3.29-6.69 4.53-2.28c1.05 1.88 2.36 4.23 3.76 6.69zm.98-.54c-1.08-2.12-2.45-4.62-3.56-6.81 5.3-2.84 4.7-1.46 7.05 2.26 1.04 1.66-.23 3.03-3.49 4.55zM8.61 17.91a2.68 2.68 0 0 1-1.84-3.27A2.73 2.73 0 0 1 10 12.83 2.84 2.84 0 0 1 11.87 16a2.79 2.79 0 0 1-3.26 1.91zm.94 5.59c-.6.25-.39.31-1 .28-.85 0-1.2-.71-1-1.6s.77-1.48 1.65-1.1a1.38 1.38 0 0 1 .8 1.27 1.76 1.76 0 0 1-.45 1.15zm4.8-3.42a1.11 1.11 0 0 1-1.27.66 1.16 1.16 0 0 1-.72-1.21 1 1 0 0 1 1.27-.68 1 1 0 0 1 .72 1.23z"/></g></g></g></svg>