<svg xmlns="http://www.w3.org/2000/svg" viewBox="0 0 63.58 41.47"><defs><style/></defs><title>дельфины</title><g id="Слой_2" data-name="Слой 2"><g id="Слой_1-2" data-name="Слой 1"><path class="cls-1" d="M28.15 12.74s.43 3.56-.91 4.58c0 0-.43.75.55.62A5.94 5.94 0 0 0 31 14.79s.49-1.3 1-1c0 0 4.75 1.57 5.54 1.51 0 0 4.76 2.81 4.39 1.3a.77.77 0 0 0 0-1.1s-1.08-1-1.34-1.27a4.79 4.79 0 0 0-.45-.46 7.52 7.52 0 0 0-.63-2.82 11 11 0 0 0-2.31-3.49A21 21 0 0 0 24.3 2.3 4.57 4.57 0 0 0 20.1 0s-.61.14.12.62c0 0 1 1.71.06 2.39 0 0-8.35 3.15-13.4 16.75 0 0 .06.21-1.22.41 0 0-4.81 1.09-5.67 2.94 0 0-.06.27.55.07a4.46 4.46 0 0 1 2.86-.07 4.19 4.19 0 0 0 2.6.23s.55-.41.73.14a13.39 13.39 0 0 0 1.95 1s.85.27.85 1c0 0 .24.41.61-.34 0 0 1-1.5-1-4a4 4 0 0 1 1.4-1.64 35.62 35.62 0 0 1 3.29-3.62c1-.82 5.06-3.28 8.22-3.35 0 0 5.37-.2 6.1.21z"/><path class="cls-1" d="M59.36 24.61s-1.26-.72-1.58-1a4.8 4.8 0 0 0-.54-.35A7.52 7.52 0 0 0 56 20.7a11 11 0 0 0-3-2.9 21.18 21.18 0 0 0-9.91-2.59s.72 1.85-.09 2c0 0-.48.83-2 .56a31.51 31.51 0 0 1-4.37-1.62s-.32.1-1.13 1c0 0-7.46 4.88-9.45 19.26 0 0 .1.19-1.1.66 0 0-4.46 2.11-4.89 4.1 0 0 0 .28.55-.05a4.46 4.46 0 0 1 2.78-.69 4.19 4.19 0 0 0 2.61-.34s.45-.52.74 0a13.39 13.39 0 0 0 2.11.51s.89.08 1.05.82c0 0 .33.35.52-.47 0 0 .68-1.69-1.81-3.66a4 4 0 0 1 1-1.91A35.61 35.61 0 0 1 32 31.11c.83-1 4.22-4.3 7.3-5.06 0 0 5.19-1.36 6-1.12 0 0 1.19 3.38.1 4.67 0 0-.25.83.67.48a5.94 5.94 0 0 0 2.47-3.77s.19-1.37.73-1.21c0 0 5 .5 5.74.27 0 0 5.25 1.71 4.57.32a.77.77 0 0 0-.22-1.08z"/><path class="cls-1" d="M63.26 17.28s-1.23-.78-1.54-1a4.78 4.78 0 0 0-.53-.37 7.52 7.52 0 0 0-1.11-2.67 11 11 0 0 0-2.87-3A21 21 0 0 0 43.63 7.3a4.57 4.57 0 0 0-4.53-1.5s-.58.24.23.59c0 0 1.31 1.51.47 2.35l.53.66a9.93 9.93 0 0 1 .83 3.39c0 1.07.58 1.41 1 1.4A23.91 23.91 0 0 1 55 17.6a20.35 20.35 0 0 0 3.93.24s5.17 2 4.55.53a.77.77 0 0 0-.22-1.09zm-40.91 5.48s.53-.18.53.29a10.91 10.91 0 0 0 1.27 1.24 1 1 0 0 1 .4 1s.09.38.56-.11c0 0 1.18-.9.25-3.32a3.24 3.24 0 0 1 1.5-.92 29 29 0 0 1 3.47-2c.17-.07 1.86-1.14 2.3-1.45s2.16-1.94 2.16-1.94l-2.53-.78a1.65 1.65 0 0 1-.22.56 16.39 16.39 0 0 1-1.7 2.13c-.55.47-1.67 1-2.17 1.39s-1.53 0-1.53 0-.37-1-.41-.86A21.47 21.47 0 0 1 24 20.24s0 .17-1 0c0 0-4-.37-5.13.84 0 0-.12.2.41.19a3.63 3.63 0 0 1 2.23.67 3.42 3.42 0 0 0 1.84.82z"/></g></g></svg>