<svg xmlns="http://www.w3.org/2000/svg" width="30" height="30" viewBox="0 0 30 30"><path d="M22.27 0H7.73A7.75 7.75 0 0 0 0 7.73v14.54A7.75 7.75 0 0 0 7.73 30h6.85l.02-11.01-2.5-.07-.04-3.54 2.56.02s-.03-1.7-.02-3.94c.01-1.04.6-1.91.6-1.91a4.23 4.23 0 0 1 1.35-1.42 4.2 4.2 0 0 1 1.59-.56 9.58 9.58 0 0 1 2.86 0c1.59.13 2.04.3 2.62.46l-.67 3.64s-1.08-.36-1.79-.36c-.58.01-1.12.05-1.37.25-.28.22-.65.81-.64 1.11.05 2.51.01 2.73.01 2.73l3.98-.02-.33 3.57h-3.57L19.2 30h3.06A7.75 7.75 0 0 0 30 22.27V7.73A7.75 7.75 0 0 0 22.27 0z"/></svg>