<svg xmlns="http://www.w3.org/2000/svg" viewBox="0 0 57.25 49.86"><defs><style/></defs><title>удочка</title><g id="Слой_2" data-name="Слой 2"><g id="Слой_1-2" data-name="Слой 1"><path class="cls-1" d="M49.75 1.56c-4.19 0-6.25 3.69-6.94 4.88s1.5.69 1.5.69a27.72 27.72 0 0 1 2.37-2.81c1-.81 4.31-1.94 6.25-.12s2.5 3.12 2.5 5.13a6.26 6.26 0 0 1-6.56 6.35c-3 0-5.45-2.51-7.49-4.68l.2-.2A4.65 4.65 0 0 0 42 9.54a2.08 2.08 0 0 0-.5-1.08A2.93 2.93 0 0 0 40.08 8a5.54 5.54 0 0 0-1.25.3 54.87 54.87 0 0 0-4.77-4.6A19.94 19.94 0 0 0 23.81 0 11 11 0 0 0 16 2.69C14.58 4 13.81 6.56 13.88 8.63a8 8 0 0 0 1.56 4.81c.36.47 8.14 8 8.65 8.5l.5.53L17.05 30a7 7 0 0 0-6.88 7L0 47.21a10.94 10.94 0 0 0 1 1.5 12.5 12.5 0 0 0 1.75 1.08L11.47 41A6.95 6.95 0 0 0 21 42.8l3.32 3-2 2.2a3.39 3.39 0 0 0-.42 1.08 1.16 1.16 0 0 0 .42.67 3.15 3.15 0 0 0 1.17 0l3.67-4-4.66-4.33a7 7 0 0 0-1.36-10.1l6.07-6.09c3.65 3.85 9.21 9.68 9.42 9.77s1 .31 1.31 0 .19-1.19.19-1.19L28.45 24l11.73-11.79a38.85 38.85 0 0 0 4 3.73 8.57 8.57 0 0 0 5.44 1.65 6.94 6.94 0 0 0 3-.83 8.42 8.42 0 0 0 4.63-7.44c-.06-4.57-3.31-7.76-7.5-7.76zm-24 19.7c-4.3-4.38-8.18-8.34-8.65-8.86a6.48 6.48 0 0 1 .81-8.78c2.68-2.46 8.52-1.85 10.58-.85A23.53 23.53 0 0 1 36.06 8l1.44 1.47zm21.5 18.37c-1.54 0-2.8.62-3.67-.75a2.07 2.07 0 0 0-2.05-.34c-.16.18 0 1 .14 1.23A6.71 6.71 0 0 0 43 41.29c.63.58 3.08.42 3.83.42s2 .5 2 1.75a2.19 2.19 0 0 1-2 2.29 2.09 2.09 0 0 1-2.21-1.12c-.5-.92-.88.43-.87.71 0 .56.13 2.27 3 2.27s4-1.77 4.08-4.1a4 4 0 0 0-3.58-3.88z"/><path class="cls-1" d="M45.91 37.74l.71-.71-1.5-1.2h-2.81l2.44-2.17v-1l-1.93.22-2.11 2.29.21-3.88-.71-.71-1.24 1.49.09 3.85-3.9-.07-1.38 1.16.69.69 3.78-.18-2.42 2.4-.17 1.8h.96l2.39-2.66v2.97l1.18 1.39.69-.68-.24-5.26 5.27.26z"/></g></g></svg>