<svg xmlns="http://www.w3.org/2000/svg" viewBox="0 0 41.19 50.06"><defs><style/></defs><title>гопро</title><g id="Слой_2" data-name="Слой 2"><g id="Слой_1-2" data-name="Слой 1"><path class="cls-1" d="M5.19 0h25v3h-25z"/><circle class="cls-1" cx="27.69" cy="18.5" r="6.5"/><circle class="cls-1" cx="36.19" cy="18" r="1"/><circle class="cls-1" cx="19.19" cy="18" r="1"/><circle class="cls-1" cx="32.19" cy="11" r="1"/><circle class="cls-1" cx="23.19" cy="11" r="1"/><circle class="cls-1" cx="32.19" cy="26" r="1"/><circle class="cls-1" cx="23.19" cy="26" r="1"/><path class="cls-1" d="M25.62 41.06H22v1.69H10.82a3 3 0 0 0-2.66-1.69H3A3 3 0 1 0 3 47h5.16a3 3 0 0 0 2.68-1.72H22V47h-6v3.06h15.37V47h-5.75zm8.77-34.27A5.68 5.68 0 0 0 29.52 4H5.86A5.69 5.69 0 0 0 .19 9.67v23.66A5.69 5.69 0 0 0 5.86 39h23.66a5.69 5.69 0 0 0 5.67-5.67v-3.61a13.49 13.49 0 0 0-.8-22.93zM8.56 35.84a3.38 3.38 0 1 1 3.38-3.37 3.38 3.38 0 0 1-3.38 3.37zm3.38-17.75H5.19V8.16h6.75zM27.69 30a11.5 11.5 0 1 1 11.5-11.5A11.5 11.5 0 0 1 27.69 30z"/></g></g></svg>