<svg xmlns="http://www.w3.org/2000/svg" viewBox="0 0 33.98 49.97"><defs><style/></defs><title>торт</title><g id="Слой_2" data-name="Слой 2"><g id="Слой_1-2" data-name="Слой 1"><path class="cls-1" d="M16 7.76v6h1.85v-6a2.74 2.74 0 0 0 1.64-2.49c0-1-2.2-4.57-2.52-5.28 0 0-2.6 4.16-2.52 5.36A2.6 2.6 0 0 0 16 7.76zm12 15.82a9.46 9.46 0 0 0-1.47-.12c-3 0-5.25 3.18-9.12 3.18s-4.44-3.18-8.44-3.18a8.71 8.71 0 0 0-2.9.47v5.86H28z"/><path class="cls-1" d="M17.43 23.46c3.06 0 6.19-3.39 8.63-3.39a6.28 6.28 0 0 1 1.9.32v-3.47H6v3.61a9.52 9.52 0 0 1 2.9-.45c3.28-.01 5.47 3.39 8.53 3.38zM0 33v9h.05c2.88 0 5.31-3.77 8.81-3.77 3.25 0 5.44 3.4 8.5 3.39s4.5-3.34 8.19-3.37c3.12 0 5.94 3.81 8.37 3.75H34v-9z"/><path class="cls-1" d="M25.85 41.62c-3 0-4.67 3.13-8.55 3.14-4.37 0-4.44-3.18-8.44-3.18s-4.12 3.3-8.81 3.18H0V50h34v-5.26h-.05c-4.27.16-5.1-3.12-8.1-3.12z"/></g></g></svg>