<svg xmlns="http://www.w3.org/2000/svg" viewBox="0 0 33.98 49.97"><defs><style/></defs><g id="Слой_2" data-name="Слой 2"><g id="Слой_1-2" data-name="Слой 1"><path class="cls-1" d="M16,7.76v6h1.85v-6a2.74,2.74,0,0,0,1.64-2.49c0-1-2.2-4.57-2.52-5.28,0,0-2.6,4.16-2.52,5.36A2.6,2.6,0,0,0,16,7.76Z"/><path class="cls-1" d="M28,23.58a9.46,9.46,0,0,0-1.47-.12c-3,0-5.25,3.18-9.12,3.18s-4.44-3.18-8.44-3.18a8.71,8.71,0,0,0-2.9.47v5.86H28Z"/><path class="cls-1" d="M17.43,23.46c3.06,0,6.19-3.39,8.63-3.39a6.28,6.28,0,0,1,1.9.32V16.92H6v3.61a9.52,9.52,0,0,1,2.9-.45C12.18,20.07,14.37,23.47,17.43,23.46Z"/><path class="cls-1" d="M0,33v9H.05c2.88,0,5.31-3.77,8.81-3.77,3.25,0,5.44,3.4,8.5,3.39s4.5-3.34,8.19-3.37c3.12,0,5.94,3.81,8.37,3.75H34V33Z"/><path class="cls-1" d="M25.85,41.62c-3,0-4.67,3.13-8.55,3.14-4.37,0-4.44-3.18-8.44-3.18S4.74,44.88.05,44.76H0V50H34V44.74l-.05,0C29.68,44.9,28.85,41.62,25.85,41.62Z"/></g></g></svg>