<svg xmlns="http://www.w3.org/2000/svg" viewBox="0 0 40.25 34.12"><defs><style>.cls-1{fill:#fff}</style></defs><title>внимание</title><g id="Слой_2" data-name="Слой 2"><g id="Слой_1-2" data-name="Слой 1"><path class="cls-1" d="M20.13 26.07a2.46 2.46 0 0 0-2.46 2.46 2.23 2.23 0 0 0 .72 1.69 2.58 2.58 0 0 0 3.48 0 2.22 2.22 0 0 0 .72-1.69 2.46 2.46 0 0 0-2.46-2.46zM22 10.17a2.54 2.54 0 0 0-1.83-.66 2.54 2.54 0 0 0-1.83.66 2.3 2.3 0 0 0-.69 1.74q0 .45.06 1.06t.27 1.89q.21 1.28.63 3.44t1.1 5.7h.84q.72-3.54 1.14-5.7t.63-3.44q.21-1.28.27-1.89t.06-1.06a2.3 2.3 0 0 0-.65-1.74z"/><path class="cls-1" d="M20.13 0L0 34.12h40.25zm0 3.94l16.62 28.18H3.5z"/></g></g></svg>