<svg xmlns="http://www.w3.org/2000/svg" viewBox="0 0 49.92 49.33"><defs><style>.cls-1{fill:#fff}</style></defs><title>лодки_1</title><g id="Слой_2" data-name="Слой 2"><path class="cls-1" d="M2.75 11.42h4.06l-2.87 2.87a1.67 1.67 0 0 0 2.36 2.35l2.87-2.87v4.06a1.67 1.67 0 1 0 3.33 0v-4.06l2.87 2.87a1.67 1.67 0 0 0 2.36-2.36l-2.87-2.87h4.06a1.67 1.67 0 1 0 0-3.33h-4.06l2.87-2.87a1.67 1.67 0 1 0-2.36-2.36L12.5 5.73V1.67a1.67 1.67 0 0 0-3.33 0v4.06L6.3 2.86a1.67 1.67 0 0 0-2.36 2.35l2.87 2.87H2.75a1.67 1.67 0 0 0 0 3.33zM34.08 25V5.92L22.67 24.58l1.08.42h10.33zM47 23.92L38.92 10 37.5 9v16H47v-1.08zm1.46 10H44l3-4v-1.67H21.67v1.58l2.17 4.08H1.46a1.46 1.46 0 1 0 0 2.92h15.12l.84.92v1.58l-1 .83H9.46a1.46 1.46 0 1 0 0 2.92h11.33l1 1v1.33l-1 1h-15a1.46 1.46 0 1 0 0 2.92H36a1.46 1.46 0 0 0 0-2.92h-3l-.9-1.25v-1.41l1-.67h9.4a1.46 1.46 0 0 0 0-2.92H32.22l-1.39-1.33v-1.16l.91-.83h16.72a1.46 1.46 0 0 0 0-2.92z" id="Слой_1-2" data-name="Слой 1"/></g></svg>