<svg xmlns="http://www.w3.org/2000/svg" width="30" height="30" viewBox="0 0 30 30"><path d="M15 11.92c1.09.01 2.01-.8 2.01-2.01 0-1.18-.88-1.99-1.97-2.01A1.96 1.96 0 0 0 13 9.91c0 1.19.92 2.02 2 2.01zM22.27 0H7.73A7.75 7.75 0 0 0 0 7.73v14.54A7.75 7.75 0 0 0 7.73 30h14.54A7.75 7.75 0 0 0 30 22.27V7.73A7.75 7.75 0 0 0 22.27 0zM15 5.17a4.7 4.7 0 0 1 4.74 4.74A4.7 4.7 0 0 1 15 14.65a4.7 4.7 0 0 1-4.74-4.74A4.7 4.7 0 0 1 15 5.17zm4.76 12.64a7.67 7.67 0 0 1-2.75 1.17l-.02.03.09.06 2.56 2.56c.48.49.58 1.28.21 1.85-.24.36-.59.55-1 .62-.52.08-.95-.1-1.31-.46l-2.46-2.46c-.07-.07-.1-.08-.18-.01l-2.48 2.49a1.5 1.5 0 0 1-1.12.46 1.37 1.37 0 0 1-1.36-1.19c-.1-.51.05-.95.43-1.32l2.54-2.54.09-.06-.02-.03-.55-.15a8.57 8.57 0 0 1-2.25-1.05 1.45 1.45 0 0 1 .57-2.6c.34-.05.66-.01.96.17.49.28 1 .53 1.55.69a6.2 6.2 0 0 0 4.54-.43c.22-.11.42-.25.64-.34.84-.36 1.8.18 1.95 1.08.1.61-.1 1.11-.63 1.46z"/></svg>