<svg xmlns="http://www.w3.org/2000/svg" viewBox="0 0 33 33"><g id="Слой_2" data-name="Слой 2"><path d="M25,2.36A16.5,16.5,0,1,0,30.64,25,16.5,16.5,0,0,0,25,2.36ZM20.07,27.48l-1.81.45a2.44,2.44,0,0,1-1-.16c-2.83-2.7-5.2-5.6-6.22-9.66a20.14,20.14,0,0,1,.86-11.95,2.46,2.46,0,0,1,.8-.58l1.81-.45a2.21,2.21,0,0,1,2,.64l.19.22a2.61,2.61,0,0,1,.47,2.14l-.69,2.43a2.39,2.39,0,0,1-1.54,1.51l-1.21-.2c-.91,3.19,0,7.65,2.25,10l1.21-.8a2.39,2.39,0,0,1,2.07.61L21,23.57a2.61,2.61,0,0,1,.59,2.11l-.07.29A2.21,2.21,0,0,1,20.07,27.48Z" fill="#00b6ff" id="Слой_1-2" data-name="Слой 1"/></g></svg>