<svg xmlns="http://www.w3.org/2000/svg" width="20" height="20" viewBox="0 0 20 20"><path fill="#008cd2" d="M12.054 12.703l.026-.006c.004-.001.006-.003.01-.003.225-.062.57.506.771 1.266.201.761.181 1.427-.044 1.488a9.64 9.64 0 0 1-.361.153c-.041.018-.084-.027-.067-.072.09-.252.062-.781-.093-1.368-.168-.636-.432-1.14-.646-1.269-.028-.016-.022-.058.007-.067.131-.037.267-.08.397-.122zm-2.646-8.65c.153-.02.289-.038.388-.048.226-.062.571.505.77 1.266.202.76.183 1.426-.043 1.488-.003 0-.006 0-.01.002-.008.002-.017.006-.025.007-.134.03-.272.063-.405.096-.03.009-.054-.026-.039-.054.122-.22.103-.79-.065-1.427-.155-.585-.391-1.06-.594-1.23-.036-.03-.022-.092.023-.1zm1.004 11.923c-1.045-.614-2.027-2.472-2.577-4.44l-.447-1.692c-.492-1.984-.558-4.091.045-5.154.1-.173.983-.407.983-.407l.172-.048c.226-.06.574.512.777 1.279.202.768.183 1.44-.043 1.501l-.12.034a.172.172 0 0 0-.088.056c-.458.557-.612 1.49-.408 2.38l.447 1.692c.262.876.855 1.604 1.524 1.854.035.013.071.014.105.005l.121-.033c.226-.061.573.511.776 1.28.203.767.184 1.44-.042 1.5l-.174.047s-.88.246-1.05.146zM20 10c0-5.523-4.477-10-10-10S0 4.477 0 10s4.477 10 10 10 10-4.477 10-10z"/></svg>