<svg xmlns="http://www.w3.org/2000/svg" viewBox="0 0 50.06 50.06"><defs><style>.cls-1{fill:#fff}</style></defs><title>солнечные ванны</title><g id="Слой_2" data-name="Слой 2"><g id="Слой_1-2" data-name="Слой 1"><circle class="cls-1" cx="25.17" cy="25.03" r="12"/><path class="cls-1" d="M48.06 22.95h-4.5a2 2 0 0 0 0 4h4.5a2 2 0 0 0 0-4zM8.5 25a2 2 0 0 0-2-2H2a2 2 0 0 0 0 4h4.5a2 2 0 0 0 2-2zM25 8.5a2 2 0 0 0 2-2V2a2 2 0 0 0-4 0v4.5a2 2 0 0 0 2 2zm.07 33.06a2 2 0 0 0-2 2v4.5a2 2 0 0 0 4 0v-4.5a2 2 0 0 0-2-2zm14.46-28.28l3.18-3.18a2 2 0 0 0-2.83-2.83l-3.18 3.18a2 2 0 0 0 2.83 2.83zM10.56 36.72L7.37 39.9a2 2 0 0 0 2.83 2.83l3.18-3.18a2 2 0 0 0-2.83-2.83zm-.03-23.35a2 2 0 0 0 2.83 0 2 2 0 0 0 0-2.83l-3.19-3.18a2 2 0 1 0-2.83 2.83zm29.09 23.32a2 2 0 0 0-2.83 2.83L40 42.7a2 2 0 1 0 2.83-2.83z"/></g></g></svg>