<svg xmlns="http://www.w3.org/2000/svg" viewBox="0 0 50.06 50.06"><defs><style>.cls-1{fill:#fff}</style></defs><g id="Слой_2" data-name="Слой 2"><g id="Слой_1-2" data-name="Слой 1"><circle class="cls-1" cx="25.17" cy="25.03" r="12"/><path class="cls-1" d="M48.06,22.95h-4.5a2,2,0,0,0,0,4h4.5a2,2,0,0,0,0-4Z"/><path class="cls-1" d="M8.5,25a2,2,0,0,0-2-2H2a2,2,0,0,0,0,4H6.5A2,2,0,0,0,8.5,25Z"/><path class="cls-1" d="M25,8.5a2,2,0,0,0,2-2V2a2,2,0,0,0-4,0V6.5A2,2,0,0,0,25,8.5Z"/><path class="cls-1" d="M25.07,41.56a2,2,0,0,0-2,2v4.5a2,2,0,0,0,4,0v-4.5A2,2,0,0,0,25.07,41.56Z"/><path class="cls-1" d="M39.53,13.28l3.18-3.18a2,2,0,0,0-2.83-2.83L36.7,10.45a2,2,0,0,0,2.83,2.83Z"/><path class="cls-1" d="M10.56,36.72,7.37,39.9a2,2,0,0,0,2.83,2.83l3.18-3.18a2,2,0,0,0-2.83-2.83Z"/><path class="cls-1" d="M10.53,13.37a2,2,0,0,0,2.83,0h0a2,2,0,0,0,0-2.83L10.17,7.36a2,2,0,1,0-2.83,2.83Z"/><path class="cls-1" d="M39.62,36.69a2,2,0,0,0-2.83,2.83L40,42.7a2,2,0,1,0,2.83-2.83Z"/></g></g></svg>