<svg xmlns="http://www.w3.org/2000/svg" viewBox="0 0 46.01 30.08"><defs><style/></defs><title>плавец</title><g id="Слой_2" data-name="Слой 2"><g id="Слой_1-2" data-name="Слой 1"><path class="cls-1" d="M43.88 21.08c-1 0-3.58 4.86-9.54 5-4.83.08-15.17-6.21-21.46-6.21C7 19.83 0 24.63 0 26.46 0 28.84 1.25 29 2 29c1.54-.08 4.92-5 10.87-5.12 5.12-.11 14.71 6.25 21.25 6.25 6 0 11.75-4.62 11.88-6.25a2.47 2.47 0 0 0-2.12-2.8z"/><circle class="cls-1" cx="36.44" cy="12.77" r="6.73"/><path class="cls-1" d="M6.33 6c.5.08 10.29 1.13 10.29 1.13a42.21 42.21 0 0 1 2.63 6.33 1.08 1.08 0 0 1-.62 1c-.5.29-8.36 3.92-7.87 3.79 2.42-.67 7.67.13 10.37 1.5.47.24 7.61 3.13 8.13 3.33.76.3 2.17.75 2.17.75a11.1 11.1 0 0 0-1.33-3c-.5-.87-7.5-16.29-8-17S21.38 2.25 20.33 2 8 0 6.79 0a2.88 2.88 0 0 0-3.08 3.13A2.71 2.71 0 0 0 6.33 6z"/></g></g></svg>