<svg xmlns="http://www.w3.org/2000/svg" width="76" height="73" viewBox="0 0 76 73"><path id="Эллипс_1" data-name="Эллипс 1" d="M1251.79,782.524a10.256,10.256,0,0,0-5.98-1.917h-16.97V768.332c0-4.889-1.42-8.4-4.21-10.43a10.743,10.743,0,0,0-6.48-1.9,16.477,16.477,0,0,0-4.34.589l-0.03.008a1.481,1.481,0,0,0-1.03,1.417v13.344c0,10.34-11.64,14.187-12.99,14.6a0.955,0.955,0,0,1-.4.092h-0.39l-0.21-.323a3.429,3.429,0,0,0-2.88-1.556h-12.45a3.426,3.426,0,0,0-3.43,3.412v36.033a3.426,3.426,0,0,0,3.43,3.411h12.45a3.422,3.422,0,0,0,2.43-1.012l0.51-.5,0.51,0.5a10.2,10.2,0,0,0,7.26,2.988h32.8c7.12,0,11.49-3.565,12.31-10.035l4.17-26.447A10.314,10.314,0,0,0,1251.79,782.524Zm-3.08,36.025-0.01.053c-0.6,4.862-3.82,7.431-9.31,7.431h-32.8a7.276,7.276,0,0,1-7.28-7.25V788.918h0.71a1.481,1.481,0,0,0,.43-0.035l0.05-.014c0.15-.041,15.25-4.235,15.25-17.512V759.2l0.62-.083a13.539,13.539,0,0,1,1.79-.125,7.935,7.935,0,0,1,4.72,1.331c1.96,1.447,2.96,4.143,2.96,8.014v13.784a1.513,1.513,0,0,0,1.51,1.508h18.49a7.079,7.079,0,0,1,4.21,1.354,7.315,7.315,0,0,1,2.84,7.08l-4.18,26.451v0.04Zm-52.41-31.363v36.847h-13.27V787.186h13.27Z" transform="translate(-1180 -756)" fill="#fff" fill-rule="evenodd" opacity=".3"/></svg>