<svg xmlns="http://www.w3.org/2000/svg" viewBox="0 0 59.59 49.76"><defs><style>.cls-1{fill:#fff}</style></defs><title>вейкбординг</title><g id="Слой_2" data-name="Слой 2"><g id="Слой_1-2" data-name="Слой 1"><path class="cls-1" d="M59.46 25.56L40.6 31.31a.1.1 0 0 1-.13-.1c0-3.65-4.15-7.37-6-7.6s-6.11-.89-6.11-.89c-1.22-1.23-1.14-4.4-.71-8.66a.12.12 0 0 1 .13-.1c6.22.25 8.34 1.21 10.86 2.18 1.34.52 3 1.56 4.4-.17a.15.15 0 0 0 0-.07c.3-1.78-2.17-2.56-3.53-3.26a23 23 0 0 0-8.21-2.4 44.16 44.16 0 0 0-13.75 1.23c-4.67 1-8.42-.39-11.84-3.61-1.25-1.18-2-3-4.5-2.77-.87 0-1.63.88-1 2.29 3.76 5.17 8.19 9.16 15.27 9a3.88 3.88 0 0 1 .72-.07 18.21 18.21 0 0 0 1.62 9v.12c-5.21 2.6-6.43 6.23-4.55 11.47a.11.11 0 0 1 0 .13c-1.88 1.33-3.43.51-5.73 4.46a.12.12 0 0 0 0 .12c2.44 3.68 5.49 1.73 8.14 2.64a.11.11 0 0 1 .07.16C14.89 45.93 12.83 48 12 49.6a.11.11 0 0 0 .11.16c.9-.11 3.33-.82 4-.84a.09.09 0 0 0 .06 0c2-2 4.07-4 4.91-4.72h.06a81.82 81.82 0 0 0 10.39-1.21c11.08-2.19 21.42-7.24 28.06-17.2a.11.11 0 0 0-.13-.23zm-38.62 10c-.78.14-2.24.46-2.62-.12s-.9-3.39-.27-3.91c4.94-4.1 16.41-5.15 17.3-1.48.13.55.36 1.19.72 2.52-5.4 1.07-10.25 2.1-15.14 2.97z"/><circle class="cls-1" cx="20.89" cy="4.46" r="4.46"/></g></g></svg>