<svg xmlns="http://www.w3.org/2000/svg" viewBox="0 0 22 22"><title>Ресурс 2</title><g data-name="Слой 2"><g data-name="Слой 1"><path d="M12.92 8.93c0-.46.06-.53-.24-.73a2.57 2.57 0 0 0-1.41-.3H9.86v1.94h1.51c1.14-.02 1.55-.09 1.55-.91zM11.75 12H9.83l.06 2h1.78a2.13 2.13 0 0 0 1.33-.23c.31-.23.4-.27.4-.68-.04-.93-.58-1.09-1.65-1.09z"/><path d="M16.33 0H5.67A5.69 5.69 0 0 0 0 5.67v10.66A5.69 5.69 0 0 0 5.67 22h10.66A5.69 5.69 0 0 0 22 16.33V5.67A5.69 5.69 0 0 0 16.33 0zm-1.67 15.29a5.09 5.09 0 0 1-3 .76H7.3V6h4a5.68 5.68 0 0 1 3.12.7 2.32 2.32 0 0 1 1.06 2.06A2.11 2.11 0 0 1 15 10a2.44 2.44 0 0 1-1.19.83 2.43 2.43 0 0 1 1.37.78 2.15 2.15 0 0 1 .5 1.44 2.55 2.55 0 0 1-1.02 2.24z"/></g></g></svg>