<svg xmlns="http://www.w3.org/2000/svg" viewBox="0 0 22 22"><g id="Слой_2" data-name="Слой 2"><g id="Слой_1-2" data-name="Слой 1"><path d="M12.92,8.93c0-.46.06-.53-.24-.73a2.57,2.57,0,0,0-1.41-.3H9.86l0,1.94h1.51C12.51,9.82,12.92,9.75,12.92,8.93Z"/><path d="M11.75,12H9.83l.06,2h1.78A2.13,2.13,0,0,0,13,13.77c.31-.23.4-.27.4-.68C13.36,12.16,12.82,12,11.75,12Z"/><path d="M16.33,0H5.67A5.69,5.69,0,0,0,0,5.67V16.33A5.69,5.69,0,0,0,5.67,22H16.33A5.69,5.69,0,0,0,22,16.33V5.67A5.69,5.69,0,0,0,16.33,0ZM14.66,15.29a5.09,5.09,0,0,1-3,.76H7.3V6h4a5.68,5.68,0,0,1,3.12.7,2.32,2.32,0,0,1,1.06,2.06A2.11,2.11,0,0,1,15,10a2.44,2.44,0,0,1-1.19.83,2.43,2.43,0,0,1,1.37.78,2.15,2.15,0,0,1,.5,1.44A2.55,2.55,0,0,1,14.66,15.29Z"/></g></g></svg>