<svg xmlns="http://www.w3.org/2000/svg" width="20" height="20" viewBox="0 0 20 20"><path fill="#008cd2" d="M7.367 6.025c.222.48.705 1.681.766 1.803.063.122.104.263.021.425-.082.162-.124.263-.248.406-.124.141-.26.316-.373.425-.124.12-.253.252-.109.495.145.243.644 1.038 1.383 1.682.95.827 1.749 1.083 1.998 1.205.248.122.393.101.538-.061.145-.162.621-.709.787-.952.166-.243.33-.203.559-.122.228.082 1.45.67 1.698.79.248.122.414.183.476.284.062.101.062.587-.145 1.154s-1.221 1.114-1.677 1.155c-.455.04-.882.201-2.982-.608-2.526-.973-4.12-3.503-4.245-3.665C5.691 10.279 4.8 9.124 4.8 7.929c0-1.194.642-1.782.87-2.025a.92.92 0 0 1 .662-.304c.166 0 .332 0 .477.006.177.007.373.015.559.42zM.083 9.91c0 1.746.458 3.452 1.33 4.954L0 20l5.28-1.378a10.006 10.006 0 0 0 4.758 1.207h.004c5.489 0 9.956-4.447 9.958-9.912a9.826 9.826 0 0 0-2.914-7.01A9.921 9.921 0 0 0 10.042 0C4.553 0 .085 4.445.083 9.91z"/></svg>