<svg xmlns="http://www.w3.org/2000/svg" width="86" height="64" viewBox="0 0 86 64"><g><g opacity=".76"><path fill="#fff" d="M85.11 13.818s.89 7.418.89 14.836v6.837c0 7.273-.89 14.69-.89 14.69s-.89 6.255-3.41 9.019c-3.262 3.49-6.969 3.636-8.6 3.782C61.09 64 43 64 43 64s-22.39-.145-29.21-.872c-1.928-.437-6.228-.291-9.49-3.928C1.78 56.437.89 50.182.89 50.182S0 42.909 0 35.491v-6.836c0-7.419.89-14.837.89-14.837S1.63 7.564 4.3 4.8c3.262-3.49 6.969-3.636 8.6-3.782C24.91.145 43 0 43 0s18.09.145 30.1 1.018c1.631.146 5.338.146 8.6 3.782 2.52 2.764 3.41 9.018 3.41 9.018m-52.274 3.59v31.744l28.136-15.506z"/></g></g></svg>