<svg xmlns="http://www.w3.org/2000/svg" viewBox="0 0 51.75 37.02"><defs><style>.cls-1{fill:;}</style></defs><title>банан</title><g id="Слой_2" data-name="Слой 2"><g id="Слой_1-2" data-name="Слой 1"><path class="cls-1" d="M2.49,21.2a2.51,2.51,0,0,0-2.48,2c-.08.91,1.85,2.87,2.72,3.72,1.42,1.39,1.38,2.55,1.75,3.32C6,33.39,7.29,34.61,8,35.19A13.31,13.31,0,0,0,15.16,37c3.39-.08,8.22-.85,14.9-4.47,3.59-1.95,5.1-3.16,5.79-4A15.19,15.19,0,0,1,37.51,27a2.64,2.64,0,0,1,1.08-.58c.77-.21,1.41.17,2.15,1s2.9,3.64,2.9,3.64a2.42,2.42,0,0,0,1.82,1.08c1.32.17,3,.75,4.55-.08s1.74-1.57,1.74-1.57a3.78,3.78,0,0,1-1.82-.5,18.58,18.58,0,0,1-3.48-4.06c-1.08-1.66-2.48-4.47-3.81-5.55s-3.81-.77-3.81-.77S41.25,16.07,42,8.78A8.94,8.94,0,0,0,37.84,0s-1.31,0-1.42,1.7-3.34,9.49-3.69,10.75c-.87,3.16.27,4.19-1.06,6.94a11,11,0,0,1-6.44,5.88s5.31-3.12,6-8.5c.47-3.67-3.88-7.46-5.36-8.48a21.7,21.7,0,0,0-7-2.33c-1.49-.22-6.88.21-6,.59a36.58,36.58,0,0,1,8.63,5.1c.35.28,5.07,3.5,2.19,8.75a9.67,9.67,0,0,1-3.87,3.13,19.63,19.63,0,0,1-8.13,1.75C5.36,25.14,2.49,21.2,2.49,21.2Z"/></g></g></svg>
