<svg xmlns="http://www.w3.org/2000/svg" viewBox="0 0 57.25 49.86"><defs><style>.cls-1{fill:;}</style></defs><title>удочка</title><g id="Слой_2" data-name="Слой 2"><g id="Слой_1-2" data-name="Слой 1"><path class="cls-1" d="M49.75,1.56c-4.19,0-6.25,3.69-6.94,4.88s1.5.69,1.5.69a27.72,27.72,0,0,1,2.37-2.81c1-.81,4.31-1.94,6.25-.12s2.5,3.12,2.5,5.13a6.26,6.26,0,0,1-6.56,6.35c-3,0-5.45-2.51-7.49-4.68l.2-.2A4.65,4.65,0,0,0,42,9.54a2.08,2.08,0,0,0-.5-1.08A2.93,2.93,0,0,0,40.08,8a5.54,5.54,0,0,0-1.25.3,54.87,54.87,0,0,0-4.77-4.6A19.94,19.94,0,0,0,23.81,0,11,11,0,0,0,16,2.69C14.58,4,13.81,6.56,13.88,8.63a8,8,0,0,0,1.56,4.81c.36.47,8.14,8,8.65,8.5l.5.53L17.05,30A7,7,0,0,0,10.17,37L0,47.21a10.94,10.94,0,0,0,1,1.5,12.5,12.5,0,0,0,1.75,1.08L11.47,41A6.95,6.95,0,0,0,21,42.8l3.32,3-2,2.2a3.39,3.39,0,0,0-.42,1.08,1.16,1.16,0,0,0,.42.67,3.15,3.15,0,0,0,1.17,0l3.67-4L22.5,41.42a7,7,0,0,0-1.36-10.1l6.07-6.09c3.65,3.85,9.21,9.68,9.42,9.77s1,.31,1.31,0,.19-1.19.19-1.19L28.45,24,40.18,12.21a38.85,38.85,0,0,0,4,3.73,8.57,8.57,0,0,0,5.44,1.65,6.94,6.94,0,0,0,3-.83,8.42,8.42,0,0,0,4.63-7.44C57.19,4.75,53.94,1.56,49.75,1.56Zm-24,19.7c-4.3-4.38-8.18-8.34-8.65-8.86a6.48,6.48,0,0,1,.81-8.78c2.68-2.46,8.52-1.85,10.58-.85A23.53,23.53,0,0,1,36.06,8L37.5,9.47Z"/><path class="cls-1" d="M47.25,39.63c-1.54,0-2.8.62-3.67-.75a2.07,2.07,0,0,0-2.05-.34c-.16.18,0,1,.14,1.23A6.71,6.71,0,0,0,43,41.29c.63.58,3.08.42,3.83.42s2,.5,2,1.75a2.19,2.19,0,0,1-2,2.29,2.09,2.09,0,0,1-2.21-1.12c-.5-.92-.88.43-.87.71,0,.56.13,2.27,3,2.27s4-1.77,4.08-4.1A4,4,0,0,0,47.25,39.63Z"/><polygon class="cls-1" points="45.91 37.74 46.62 37.03 45.12 35.83 42.31 35.83 44.75 33.66 44.75 32.66 42.82 32.88 40.71 35.17 40.92 31.29 40.21 30.58 38.97 32.07 39.06 35.92 35.16 35.85 33.78 37.01 34.47 37.7 38.25 37.52 35.83 39.92 35.66 41.72 36.62 41.72 39.01 39.06 39.01 42.03 40.19 43.42 40.88 42.74 40.64 37.48 45.91 37.74"/></g></g></svg>
