<svg xmlns="http://www.w3.org/2000/svg" viewBox="0 0 41.19 50.06"><defs><style>.cls-1{fill:;}</style></defs><title>гопро</title><g id="Слой_2" data-name="Слой 2"><g id="Слой_1-2" data-name="Слой 1"><rect class="cls-1" x="5.19" width="25" height="3"/><circle class="cls-1" cx="27.69" cy="18.5" r="6.5"/><circle class="cls-1" cx="36.19" cy="18" r="1"/><circle class="cls-1" cx="19.19" cy="18" r="1"/><circle class="cls-1" cx="32.19" cy="11" r="1"/><circle class="cls-1" cx="23.19" cy="11" r="1"/><circle class="cls-1" cx="32.19" cy="26" r="1"/><circle class="cls-1" cx="23.19" cy="26" r="1"/><path class="cls-1" d="M25.62,41.06H22v1.69H10.82a3,3,0,0,0-2.66-1.69H3A3,3,0,1,0,3,47H8.16a3,3,0,0,0,2.68-1.72H22V47H16v3.06H31.37V47H25.62Z"/><path class="cls-1" d="M34.39,6.79A5.68,5.68,0,0,0,29.52,4H5.86A5.69,5.69,0,0,0,.19,9.67V33.33A5.69,5.69,0,0,0,5.86,39H29.52a5.69,5.69,0,0,0,5.67-5.67V29.72a13.49,13.49,0,0,0-.8-22.93ZM8.56,35.84a3.38,3.38,0,1,1,3.38-3.37A3.38,3.38,0,0,1,8.56,35.84Zm3.38-17.75H5.19V8.16h6.75ZM27.69,30a11.5,11.5,0,1,1,11.5-11.5A11.5,11.5,0,0,1,27.69,30Z"/></g></g></svg>
