<svg xmlns="http://www.w3.org/2000/svg" viewBox="0 0 49.92 49.33"><defs><style>.cls-1{fill:#fff;}</style></defs><title>лодки_1</title><g id="Слой_2" data-name="Слой 2"><g id="Слой_1-2" data-name="Слой 1"><path class="cls-1" d="M2.75,11.42H6.81L3.94,14.29A1.67,1.67,0,0,0,6.3,16.64l2.87-2.87v4.06a1.67,1.67,0,1,0,3.33,0V13.77l2.87,2.87a1.67,1.67,0,0,0,2.36-2.36l-2.87-2.87h4.06a1.67,1.67,0,1,0,0-3.33H14.86l2.87-2.87a1.67,1.67,0,1,0-2.36-2.36L12.5,5.73V1.67a1.67,1.67,0,0,0-3.33,0V5.73L6.3,2.86A1.67,1.67,0,0,0,3.94,5.21L6.81,8.08H2.75a1.67,1.67,0,0,0,0,3.33Z"/><polygon class="cls-1" points="34.08 25 34.08 5.92 22.67 24.58 23.75 25 34.08 25"/><polygon class="cls-1" points="47 23.92 38.92 10 37.5 9 37.5 25 47 25 47 23.92"/><path class="cls-1" d="M48.46,33.92H44l3-4V28.25H21.67v1.58l2.17,4.08H1.46a1.46,1.46,0,1,0,0,2.92H16.58l.84.92v1.58l-1,.83H9.46a1.46,1.46,0,1,0,0,2.92H20.79l1,1v1.33l-1,1h-15a1.46,1.46,0,1,0,0,2.92H36a1.46,1.46,0,0,0,0-2.92h-3l-.9-1.25V43.75l1-.67h9.4a1.46,1.46,0,0,0,0-2.92H32.22l-1.39-1.33V37.67l.91-.83H48.46a1.46,1.46,0,0,0,0-2.92Z"/></g></g></svg>