<svg xmlns="http://www.w3.org/2000/svg" width="68" height="32" viewBox="0 0 68 32"><defs><clipPath id="uhi6a"><path d="M0 6.76h67.985v24.937H0z"/></clipPath></defs><g><g><g/><g clip-path="url(#uhi6a)"><path fill="#666" d="M67.652 22.146s.75.827 0 1.771c-.748.946-5.975 3.226-8.933 4.368-2.857 1.104-9.208 4.488-17.826 3.071C32.275 29.94 9.37 19.194 5.475 16.716 1.576 14.236 0 11.809 0 10.392 0 8.976 1.695 6.76 1.695 6.76s-.039 2.244 1.026 3.307c1.063 1.062 6.638 2.729 11.726.643 3.057-1.257 2.88-2.74 5.904-3.075 12.963-1.438 18.771 4.004 18.771 4.004s4.604 1.3 13.577 4.308c8.972 3.008 14.953 6.2 14.953 6.2m-25.107 8.146c3.172.338 8.603-3.092 8.603-3.092s-10.17-1.075-17.635-2.228c-7.944-1.229-20.474-5.323-20.474-5.323s20.678 9.705 29.506 10.643m21.36-8.855c.898-.052-6.02-2.48-11.922-4.604-5.903-2.125-14.166-4.723-14.166-4.723-1.78-.304-10.585-2.537-20.553-.872-2.098.35-3.983 1.09-3.275 2.037.708.943 19.794 4.221 25.812 5.329 6.022 1.107 21.372 2.988 24.103 2.833"/></g></g><g><path fill="#21a1d2" d="M60.45 0S29.062.58 19.061 1.596C10.994 2.414 3.9 3.346 2.927 6.223c-1.721 5.093 9.704 3.844 9.6 3.244 0 0-2.55-.374-3.01-1.771-.686-2.095 7.334-4.176 10.854-4.502 0 0-4.036 2.135-4.246 4.304 2.97-2.514 9.903-1.691 9.903-1.691s-1.609-2.449 2.058-3.293C32.27 1.549 60.449 0 60.449 0"/></g></g></svg>