<svg xmlns="http://www.w3.org/2000/svg" width="100" height="18" viewBox="0 0 100 18"><g><g><path fill="#31a0da" d="M12.879 3.077l-1.874 1.962c-.514-.427-1.005-.736-1.467-.928-.464-.188-.998-.285-1.6-.285-1.134 0-2.036.445-2.712 1.334-.678.89-1.017 2.24-1.017 4.05 0 1.954.256 3.342.773 4.158.514.816 1.317 1.223 2.406 1.223.764 0 1.455-.17 2.072-.506V10.62H7.476l-.354-2.556h5.845v7.564a9.888 9.888 0 0 1-2.626 1.192c-.954.278-1.932.421-2.932.421-2.295 0-4.025-.683-5.196-2.043C1.045 13.837.46 11.842.46 9.21c0-1.678.32-3.118.959-4.325.639-1.205 1.516-2.12 2.626-2.747 1.11-.624 2.35-.937 3.716-.937 1.987 0 3.69.626 5.118 1.877"/></g><g><path fill="#31a0da" d="M24.618 6.424c1.015 1.097 1.523 2.63 1.523 4.601 0 1.249-.234 2.342-.696 3.276-.464.933-1.125 1.656-1.986 2.17-.86.517-1.879.776-3.056.776-1.78 0-3.178-.549-4.2-1.646-1.024-1.095-1.533-2.628-1.533-4.6 0-1.25.23-2.34.693-3.273.464-.935 1.125-1.66 1.987-2.175.86-.513 1.876-.773 3.053-.773 1.795 0 3.2.549 4.215 1.644m-5.802 1.809c-.355.597-.529 1.52-.529 2.774 0 1.283.17 2.22.518 2.808.346.59.879.882 1.598.882.707 0 1.237-.296 1.59-.895.351-.595.529-1.52.529-2.772 0-1.282-.174-2.217-.519-2.808-.345-.589-.879-.883-1.6-.883-.704 0-1.233.3-1.587.894"/></g><g><path fill="#31a0da" d="M37.498 6.424c1.015 1.097 1.523 2.63 1.523 4.601 0 1.249-.233 2.342-.696 3.276-.464.933-1.124 1.656-1.986 2.17-.86.517-1.879.776-3.056.776-1.78 0-3.179-.549-4.2-1.646-1.023-1.095-1.533-2.628-1.533-4.6 0-1.25.23-2.34.693-3.273.464-.935 1.125-1.66 1.987-2.175.859-.513 1.876-.773 3.053-.773 1.795 0 3.2.549 4.215 1.644m-5.802 1.809c-.354.597-.53 1.52-.53 2.774 0 1.283.172 2.22.52 2.808.344.59.878.882 1.597.882.706 0 1.238-.296 1.59-.895.351-.595.528-1.52.528-2.772 0-1.282-.172-2.217-.518-2.808-.345-.589-.878-.883-1.6-.883-.704 0-1.233.3-1.587.894"/></g><g><path fill="#31a0da" d="M51.592 16.864h-3.088l-.176-1.369c-.353.532-.81.954-1.368 1.27-.56.318-1.214.475-1.963.475-1.458 0-2.564-.559-3.322-1.676-.758-1.119-1.135-2.65-1.135-4.588 0-1.208.195-2.276.585-3.211.389-.933.952-1.665 1.687-2.195.736-.529 1.595-.794 2.582-.794a3.864 3.864 0 0 1 2.713 1.101V.12l3.485.376zm-3.489-8.56a3.549 3.549 0 0 0-.847-.738 1.831 1.831 0 0 0-.957-.255c-.662 0-1.184.298-1.565.894-.382.596-.574 1.527-.574 2.79 0 1.37.166 2.326.496 2.87.332.544.813.816 1.442.816.78 0 1.447-.436 2.005-1.302z"/></g><g><path fill="#666" d="M65.98 12.414c0 1.63-.584 2.783-1.752 3.45-1.17.67-2.806 1.004-4.909 1.004H54.4V1.58h4.323c2.146 0 3.786.307 4.92.915 1.13.612 1.696 1.607 1.696 2.99 0 .897-.267 1.623-.803 2.171-.537.553-1.203.925-1.997 1.117 1.014.19 1.842.566 2.483 1.125.64.557.959 1.397.959 2.516zM58.018 7.69h1.346c1.528 0 2.293-.618 2.293-1.853 0-.618-.206-1.056-.619-1.313-.41-.257-1.064-.384-1.962-.384h-1.058zm4.235 4.521c0-1.412-.882-2.117-2.646-2.117h-1.589v4.148h1.323c.957 0 1.68-.143 2.173-.43.492-.288.739-.82.739-1.6z"/></g><g><path fill="#666" d="M77.668 6.424c1.015 1.097 1.523 2.63 1.523 4.601 0 1.249-.234 2.342-.696 3.276-.464.933-1.125 1.656-1.986 2.17-.86.517-1.88.776-3.056.776-1.78 0-3.179-.549-4.2-1.646-1.024-1.095-1.533-2.628-1.533-4.6 0-1.25.23-2.34.693-3.273.464-.935 1.125-1.66 1.987-2.175.859-.513 1.876-.773 3.053-.773 1.794 0 3.2.549 4.215 1.644m-5.803 1.809c-.354.597-.528 1.52-.528 2.774 0 1.283.17 2.22.518 2.808.345.59.879.882 1.598.882.706 0 1.237-.296 1.589-.895.352-.595.53-1.52.53-2.772 0-1.282-.174-2.217-.519-2.808-.346-.589-.879-.883-1.6-.883-.704 0-1.233.3-1.588.894"/></g><g><path fill="#666" d="M90.322 14.441c.125.208.326.361.607.464l-.728 2.272c-.722-.058-1.307-.213-1.753-.462-.45-.25-.806-.656-1.072-1.216-.764 1.164-1.94 1.745-3.53 1.745-1.162 0-2.086-.339-2.78-1.017-.69-.674-1.036-1.557-1.036-2.646 0-1.28.47-2.256 1.412-2.934.942-.676 2.303-1.012 4.082-1.012h1.192v-.51c0-.691-.147-1.166-.443-1.424-.294-.256-.808-.386-1.544-.386-.382 0-.844.056-1.388.169-.544.108-1.104.261-1.678.45L80.87 5.64c.735-.278 1.488-.49 2.261-.639a11.53 11.53 0 0 1 2.149-.22c1.678 0 2.906.346 3.686 1.036.777.691 1.168 1.728 1.168 3.112v4.544c0 .44.063.764.188.97m-4.404.023c.316-.192.587-.464.808-.818v-2.095h-.865c-.797 0-1.388.14-1.78.42-.392.28-.587.713-.587 1.301 0 .471.123.834.366 1.09.243.26.578.387 1.007.387.382 0 .735-.095 1.05-.285"/></g><g><path fill="#666" d="M98.33 17.001c-.566.16-1.13.242-1.69.242-2.558-.015-3.836-1.427-3.836-4.237V7.581H91.15V5.155h1.654V2.617l3.485-.397v2.935h2.69l-.375 2.426H96.29v5.382c0 .545.089.935.266 1.17.175.234.455.353.838.353.41 0 .831-.134 1.257-.398l1.168 2.228a5.045 5.045 0 0 1-1.488.685"/></g></g></svg>