<svg xmlns="http://www.w3.org/2000/svg" viewBox="0 0 50.05 58.81"><defs><style>.cls-1{fill:#fff;}</style></defs><title>парасейлинг_1</title><g id="Слой_2" data-name="Слой 2"><g id="Слой_1-2" data-name="Слой 1"><path class="cls-1" d="M9.69,22.29a9.48,9.48,0,0,1,8.78-2.41c.79.18,1.27-.38,1-1.19a5.3,5.3,0,0,1-.24-2.7A11.32,11.32,0,0,1,24,8.18a9.57,9.57,0,0,1,7.19-1.62c.66.1,1.15-.36,1-1A1.54,1.54,0,0,0,31.7,5,18.52,18.52,0,0,0,22.43.34a18.59,18.59,0,0,0-10.18.87A18.85,18.85,0,0,0,0,19c.23,1.52.23,3.07.56,4.56A18.15,18.15,0,0,0,4.42,31.2a.75.75,0,0,0,1,.23,1.35,1.35,0,0,0,.44-.88c.09-.72,0-1.47.13-2.18A11.18,11.18,0,0,1,9.69,22.29Z"/><path class="cls-1" d="M49,38c-3.09-1.65-6.29-3.1-9.28-4.92a4.08,4.08,0,0,0-4-.37c-1.48-8.21-2.59-16.48-4.07-24.64l-1.39-.17c1.53,8.57,2.82,16.73,4.34,25.23,0,0-.66.5-.7.52C29.6,29.18,25.32,24.84,21,20.33l-.7.84,12.65,13.2a1.81,1.81,0,0,1-1.4.65c-3.14-.67-2.06-.46-5.2-1.12C22.09,33,12.86,31.38,8.6,30.5c-.69-.14-.54-.15-1.26-.29v1.38c7.49,1.57,15.41,2.92,23,4.52-.22.16-.79.47-.92.56L25.74,39a1.83,1.83,0,0,0-.95,1.84,1.9,1.9,0,0,0,2.84,1.27c1.26-.68,2.49-1.4,3.73-2.11l4.08-2.3.81,1.41c-1.07.63-2.09,1.21-3.09,1.83a.75.75,0,0,0-.33.52c0,1.5-.05,3,0,4.51A2.35,2.35,0,0,0,35,48.47c.6.16,1.21.3,1.82.45l5,1.26c0,.21-.08.38-.12.55-.51,2-1,4-1.52,6.07a1.77,1.77,0,0,0,.12,1.07,1.72,1.72,0,0,0,1.73.94,1.65,1.65,0,0,0,1.59-1.22c.94-2.64,1.9-5.27,2.75-7.93a2.36,2.36,0,0,0-1.5-3.23c-1.81-.66-3.56-1.48-5.34-2.22a.57.57,0,0,1-.4-.78c.23-.94.41-1.88.62-2.82s.41-1.72.63-2.63c1.46.68,2.83,1.33,4.21,2,1,.47,2.08.94,3.14,1.36A1.78,1.78,0,0,0,49,38Z"/><path class="cls-1" d="M41.27,32.48a3.57,3.57,0,0,0,3.62-3.64,3.61,3.61,0,1,0-7.22.09A3.56,3.56,0,0,0,41.27,32.48Z"/><path class="cls-1" d="M34.27,53.79a1.93,1.93,0,0,0-.17,1,1.56,1.56,0,0,0,1.2,1.31,1.51,1.51,0,0,0,1.77-.56c1-1.33,1.86-2.7,2.83-4.13l-4-1C35.34,51.58,34.78,52.67,34.27,53.79Z"/></g></g></svg>