<svg xmlns="http://www.w3.org/2000/svg" viewBox="0 0 32 22"><defs><style>.cls-1{fill:#00b6ff;}</style></defs><title>fotos</title><g id="Слой_2" data-name="Слой 2"><g id="Слой_1-2" data-name="Слой 1"><circle class="cls-1" cx="14" cy="11.75" r="3"/><rect class="cls-1" x="19" y="8.75" width="3" height="1"/><path class="cls-1" d="M27,0H5A5,5,0,0,0,0,5V17a5,5,0,0,0,5,5H27a5,5,0,0,0,5-5V5A5,5,0,0,0,27,0ZM11,4.67h3v1H11ZM24.08,14.75a2,2,0,0,1-2,2h-11a2,2,0,0,1-2-2v-6a2,2,0,0,1,2-2h11a2,2,0,0,1,2,2Z"/></g></g></svg>